<svg xmlns="http://www.w3.org/2000/svg" width="430" height="430" style="width:100%;height:100%;transform:translate3d(0,0,0);content-visibility:visible" viewBox="0 0 430 430"><defs><mask id="M" mask-type="alpha"><g filter="url(#a)"><path fill="#fff" d="M0 0h416v416H0z" opacity="0"/><use xmlns:ns1="http://www.w3.org/1999/xlink" ns1:href="#b"/></g></mask><mask id="K" mask-type="alpha"><use xmlns:ns2="http://www.w3.org/1999/xlink" ns2:href="#c"/></mask><mask id="H" mask-type="alpha"><g filter="url(#d)"><path fill="#fff" d="M0 0h416v416H0z" opacity="0"/><use xmlns:ns3="http://www.w3.org/1999/xlink" ns3:href="#e"/></g></mask><mask id="G" mask-type="alpha"><g filter="url(#f)"><path fill="#fff" d="M0 0h416v416H0z" opacity="0"/><use xmlns:ns4="http://www.w3.org/1999/xlink" ns4:href="#g"/></g></mask><mask id="F" mask-type="alpha"><g filter="url(#h)"><path fill="#fff" d="M0 0h416v416H0z" opacity="0"/><use xmlns:ns5="http://www.w3.org/1999/xlink" ns5:href="#i"/></g></mask><mask id="D" mask-type="alpha"><use xmlns:ns6="http://www.w3.org/1999/xlink" ns6:href="#j"/></mask><mask id="y" mask-type="alpha"><use xmlns:ns7="http://www.w3.org/1999/xlink" ns7:href="#k"/></mask><mask id="x" mask-type="alpha"><use xmlns:ns8="http://www.w3.org/1999/xlink" ns8:href="#l"/></mask><mask id="B" mask-type="alpha"><use xmlns:ns9="http://www.w3.org/1999/xlink" ns9:href="#m"/></mask><mask id="A" mask-type="alpha"><use xmlns:ns10="http://www.w3.org/1999/xlink" ns10:href="#n"/></mask><mask id="u" mask-type="alpha"><use xmlns:ns11="http://www.w3.org/1999/xlink" ns11:href="#o"/></mask><mask id="t" mask-type="alpha"><use xmlns:ns12="http://www.w3.org/1999/xlink" ns12:href="#p"/></mask><clipPath id="q"><path d="M0 0h430v430H0z"/></clipPath><clipPath id="I"><path d="M0 0h430v430H0z"/></clipPath><clipPath id="J"><path d="M0 0h416v416H0z"/></clipPath><clipPath id="C"><path d="M0 0h430v430H0z"/></clipPath><clipPath id="E"><path d="M0 0h416v416H0z"/></clipPath><clipPath id="v"><path d="M0 0h430v430H0z"/></clipPath><clipPath id="w"><path d="M0 0h430v430H0z"/></clipPath><clipPath id="z"><path d="M0 0h430v430H0z"/></clipPath><clipPath id="r"><path d="M0 0h430v430H0z"/></clipPath><clipPath id="s"><path d="M0 0h430v430H0z"/></clipPath><path id="c" style="display:none"/><path id="b" style="display:none"/><path id="j" fill="red" d="M0-167.5c92.443 0 167.5 75.057 167.5 167.5S92.443 167.5 0 167.5-167.5 92.443-167.5 0-92.443-167.5 0-167.5" style="display:block" transform="rotate(-45 367.028 -152.028)"/><path id="e" fill="#EBE6EF" d="M30.668 15.265C76.082 10.349 96.69-8.32 96.69-55.996c0-19.521-4.479-34.179-12.678-45.021 1.075-2.415 10.481-24.759-1.551-41.318-18.752-1.972-145.76-1.969-164.482 0-11.675 16.067-3.165 37.581-1.668 41.05-8.396 10.868-13.001 25.607-13.001 45.289 0 47.686 20.923 66.353 66.459 71.264" style="display:block" transform="translate(234.94 249.563)"/><path id="g" fill="#EBE6EF" d="M-21.856 2.518c-.45.368-9.263 13.502-9.687 13.9-4.852 4.56-7.882 11.036-7.882 18.22V142.5h79.29V34.638a24.92 24.92 0 0 0-7.483-17.837C31.835 16.264 18.325.939 17.73.453" style="display:block" transform="translate(233.94 248.312)"/><path id="i" fill="#EBE6EF" d="M41.591-4.446c-48.042 14.569-39.815-7.559-65-26.5-12.589-9.468-23.901 9.026-15.5 15.5 22.087 17.021 15.981 26.47 34 40.5 15.517 12.082 35.167 7.667 46.5 3.5" style="display:block" transform="translate(128.673 280.253)"/><g id="k" style="display:none"><path class="tertiary"/><path class="tertiary" style="mix-blend-mode:multiply"/><path class="tertiary" style="mix-blend-mode:multiply"/></g><g id="l" style="display:none"><path class="tertiary"/><path class="tertiary" style="mix-blend-mode:multiply"/></g><g id="m" style="display:none"><path class="tertiary"/><path class="tertiary" style="mix-blend-mode:multiply"/><path class="tertiary" style="mix-blend-mode:multiply"/></g><g id="n" style="display:none"><path class="tertiary"/><path class="tertiary" style="mix-blend-mode:multiply"/></g><g id="o" style="display:none"><path class="tertiary"/><path class="tertiary" style="mix-blend-mode:multiply"/><path class="tertiary" style="mix-blend-mode:multiply"/></g><g id="p" style="display:none"><path class="tertiary"/><path class="tertiary" style="mix-blend-mode:multiply"/></g><filter id="a" width="100%" height="100%" x="0%" y="0%" filterUnits="objectBoundingBox"><feComponentTransfer in="SourceGraphic"><feFuncA tableValues="1.0 0.0" type="table"/></feComponentTransfer></filter><filter id="d" width="100%" height="100%" x="0%" y="0%" filterUnits="objectBoundingBox"><feComponentTransfer in="SourceGraphic"><feFuncA tableValues="1.0 0.0" type="table"/></feComponentTransfer></filter><filter id="f" width="100%" height="100%" x="0%" y="0%" filterUnits="objectBoundingBox"><feComponentTransfer in="SourceGraphic"><feFuncA tableValues="1.0 0.0" type="table"/></feComponentTransfer></filter><filter id="h" width="100%" height="100%" x="0%" y="0%" filterUnits="objectBoundingBox"><feComponentTransfer in="SourceGraphic"><feFuncA tableValues="1.0 0.0" type="table"/></feComponentTransfer></filter></defs><g clip-path="url(#q)"><g clip-path="url(#r)" style="display:none"><g clip-path="url(#s)" style="display:none"><g style="display:none"><path class="tertiary"/><path class="tertiary" style="mix-blend-mode:multiply"/><path class="tertiary" style="mix-blend-mode:multiply"/></g><g style="display:none"><path class="tertiary"/><path class="tertiary" style="mix-blend-mode:multiply"/></g><g style="display:none"><path class="tertiary"/><path class="tertiary" style="mix-blend-mode:multiply"/></g><g style="display:none"><path class="secondary"/><path class="secondary" style="mix-blend-mode:multiply"/></g><g mask="url(#t)" style="display:none"><path class="secondary"/><path class="secondary" style="mix-blend-mode:multiply"/></g><g mask="url(#u)" style="display:none"><path class="secondary"/><path class="secondary" style="mix-blend-mode:multiply"/></g><g fill="none" style="display:none"><path class="primary"/><path class="primary"/><path class="primary"/></g><path fill="none" class="primary" style="display:none"/><path fill="none" class="primary" style="display:none"/><path fill="none" class="primary" style="display:none"/><path fill="none" class="primary" style="display:none"/><path fill="none" class="primary" style="display:none"/></g></g><g clip-path="url(#v)" style="display:none"><g clip-path="url(#w)" style="display:none"><g style="display:none"><path class="tertiary"/><path class="tertiary" style="mix-blend-mode:multiply"/><path class="tertiary" style="mix-blend-mode:multiply"/></g><g style="display:none"><path class="tertiary"/><path class="tertiary" style="mix-blend-mode:multiply"/></g><g style="display:none"><path class="tertiary"/><path class="tertiary" style="mix-blend-mode:multiply"/></g><g style="display:none"><path class="secondary"/><path class="secondary" style="mix-blend-mode:multiply"/></g><g mask="url(#x)" style="display:none"><path class="secondary"/><path class="secondary" style="mix-blend-mode:multiply"/></g><g mask="url(#y)" style="display:none"><path class="secondary"/><path class="secondary" style="mix-blend-mode:multiply"/></g><g fill="none" style="display:none"><path class="primary"/><path class="primary"/><path class="primary"/></g><path fill="none" class="primary" style="display:none"/><path fill="none" class="primary" style="display:none"/><path fill="none" class="primary" style="display:none"/><path fill="none" class="primary" style="display:none"/><path fill="none" class="primary" style="display:none"/></g><g clip-path="url(#z)" style="display:none"><g style="display:none"><path class="tertiary"/><path class="tertiary" style="mix-blend-mode:multiply"/><path class="tertiary" style="mix-blend-mode:multiply"/></g><g style="display:none"><path class="tertiary"/><path class="tertiary" style="mix-blend-mode:multiply"/></g><g style="display:none"><path class="tertiary"/><path class="tertiary" style="mix-blend-mode:multiply"/></g><g style="display:none"><path class="secondary"/><path class="secondary" style="mix-blend-mode:multiply"/></g><g mask="url(#A)" style="display:none"><path class="secondary"/><path class="secondary" style="mix-blend-mode:multiply"/></g><g mask="url(#B)" style="display:none"><path class="secondary"/><path class="secondary" style="mix-blend-mode:multiply"/></g><g fill="none" style="display:none"><path class="primary"/><path class="primary"/><path class="primary"/></g><path fill="none" class="primary" style="display:none"/><path fill="none" class="primary" style="display:none"/><path fill="none" class="primary" style="display:none"/><path fill="none" class="primary" style="display:none"/><path fill="none" class="primary" style="display:none"/></g></g><g clip-path="url(#C)" style="display:block"><g fill="#393346" style="display:block"><path d="M215 46.75c92.923 0 168.25 75.327 168.25 168.25S307.924 383.252 215 383.252 46.75 307.922 46.75 215 122.076 46.75 215 46.75" class="tertiary"/><path fill-opacity=".5" d="M170.146 99.071c16.636 0 32.704-2.432 47.868-6.961-24.398 13.947-52.652 21.918-82.768 21.918-92.242 0-167.018-74.777-167.018-167.019 0-75.605 50.236-139.477 119.15-160.057-50.33 28.771-84.251 82.974-84.251 145.1 0 92.242 74.777 167.019 167.019 167.019" class="tertiary" style="mix-blend-mode:multiply" transform="translate(78.878 268.517)scale(1.00738)"/></g><g mask="url(#D)" style="display:block"><g clip-path="url(#E)" transform="translate(11.5 6.5)"><path fill="#EBE6EE" d="M41.591-4.446c-48.042 14.569-39.815-7.559-65-26.5-12.589-9.468-23.901 9.026-15.5 15.5 22.087 17.021 15.981 26.47 34 40.5 15.517 12.082 35.167 7.667 46.5 3.5" class="secondary" style="display:block" transform="translate(123.673 295.253)"/><g mask="url(#F)" opacity=".5" style="mix-blend-mode:multiply;display:block"><path fill="#EBE6EE" d="M165.264 290.807c-48.042 14.569-39.815-7.559-65-26.5-12.589-9.468-23.901 9.026-15.5 15.5 22.087 17.021 15.981 26.47 34 40.5 15.517 12.082 35.167 7.667 46.5 3.5" class="secondary" opacity="1"/></g><path fill="none" stroke="#E8392F" stroke-linecap="round" stroke-linejoin="round" stroke-width="7" d="M41.591-4.446c-48.042 14.569-39.815-7.559-65-26.5-12.589-9.468-23.901 9.026-15.5 15.5 22.087 17.021 15.981 26.47 34 40.5 15.517 12.082 35.167 7.667 46.5 3.5" class="primary" style="display:block" transform="translate(123.673 295.253)"/><path fill="#EBE6EE" d="M-21.856 2.518c-.45.368-9.263 13.502-9.687 13.9-4.852 4.56-7.882 11.036-7.882 18.22V142.5h79.29V34.638a24.92 24.92 0 0 0-7.483-17.837C31.835 16.264 18.325.939 17.73.453" class="secondary" style="display:block" transform="translate(205.19 248.312)"/><g mask="url(#G)" opacity=".5" style="mix-blend-mode:multiply;display:block"><path fill="#EBE6EE" d="M183.334 250.83c-.45.368-9.263 13.502-9.687 13.9-4.852 4.56-7.882 11.036-7.882 18.22v107.862h79.29V282.95a24.92 24.92 0 0 0-7.483-17.837c-.547-.537-14.057-15.862-14.652-16.348" class="secondary" opacity="1"/></g><path fill="none" stroke="#E8392F" stroke-linecap="round" stroke-linejoin="round" stroke-width="7" d="M-30.231 15.268c-5.611 4.584-9.194 11.559-9.194 19.37V142.5h79.29V34.638c0-7.813-3.583-14.789-9.197-19.373" class="primary" style="display:block" transform="translate(205.19 248.312)"/><path fill="#EBE6EE" d="M30.668 15.265C76.082 10.349 96.69-8.32 96.69-55.996c0-19.521-4.479-34.179-12.678-45.021 1.075-2.415 10.481-24.759-1.551-41.318-18.752-1.972-32.658 14.265-35.949 18.508-13.351-3.471-28.954-4.852-46.292-4.852-17.304 0-32.918 1.376-46.307 4.832-3.319-4.275-17.212-20.457-35.934-18.488-11.675 16.067-3.165 37.581-1.668 41.05-8.396 10.868-13.001 25.607-13.001 45.289 0 47.686 20.923 66.353 66.459 71.264" class="secondary" style="display:block" transform="translate(205.19 248.313)"/><g mask="url(#H)" opacity=".5" style="mix-blend-mode:multiply;display:block"><path fill="#EBE6EE" d="M235.858 263.578c45.414-4.916 66.022-23.585 66.022-71.261 0-19.521-4.479-34.179-12.678-45.021 1.075-2.415 10.481-24.759-1.551-41.318-18.752-1.972-32.658 14.265-35.949 18.508-13.351-3.471-28.954-4.852-46.292-4.852-17.304 0-32.918 1.376-46.307 4.832-3.319-4.275-17.212-20.457-35.934-18.488-11.675 16.067-3.165 37.581-1.668 41.05-8.396 10.868-13.001 25.607-13.001 45.289 0 47.686 20.923 66.353 66.459 71.264" class="secondary" opacity="1"/></g><path fill="none" stroke="#E8392F" stroke-linecap="round" stroke-linejoin="round" stroke-width="7" d="M30.668 15.265C76.082 10.349 96.69-8.32 96.69-55.996c0-19.521-4.479-34.179-12.678-45.021 1.075-2.415 10.481-24.759-1.551-41.318-18.752-1.972-32.658 14.265-35.949 18.508-13.351-3.471-28.954-4.852-46.292-4.852-17.304 0-32.918 1.376-46.307 4.832-3.319-4.275-17.212-20.457-35.934-18.488-11.675 16.067-3.165 37.581-1.668 41.05-8.396 10.868-13.001 25.607-13.001 45.289 0 47.686 20.923 66.353 66.459 71.264" class="primary" style="display:block" transform="translate(205.19 248.313)"/></g></g><path fill="none" stroke="#E8392F" stroke-linecap="round" stroke-linejoin="round" stroke-width="7" d="M0-167.5c92.443 0 167.5 75.057 167.5 167.5S92.443 167.5 0 167.5-167.5 92.443-167.5 0-92.443-167.5 0-167.5" class="primary" style="display:block" transform="rotate(-45 367.028 -152.028)"/></g><g clip-path="url(#I)" style="display:none"><g style="display:none"><path class="tertiary"/><path class="tertiary" style="mix-blend-mode:multiply"/></g><g clip-path="url(#J)" mask="url(#K)" style="display:none"><g style="display:none"><path class="secondary"/><path class="secondary" style="mix-blend-mode:multiply"/></g><path class="secondary" style="display:none"/><g mask="url(#M)" style="mix-blend-mode:multiply;display:none"><path class="secondary"/></g><path fill="none" class="primary" style="display:none"/><path fill="none" class="primary" style="display:none"/></g><path fill="none" class="primary" style="display:none"/></g></g></svg>